<svg xmlns="http://www.w3.org/2000/svg" width="291.359" height="607.228" viewBox="0 0 291.359 607.228">
  <g id="Group_337" data-name="Group 337" transform="translate(581 -1405)">
    <g id="Group_335" data-name="Group 335" transform="translate(0 -15)">
      <g id="baseline-shopping_basket-24px" transform="translate(-369 1876)" opacity="0.075">
        <path id="Path_90" data-name="Path 90" d="M0,0H71.228V71.228H0Z" fill="rgba(0,0,0,0)"/>
        <path id="Path_91" data-name="Path 91" d="M49.108,22.735l-13-19.469A2.946,2.946,0,0,0,33.646,2.02,2.9,2.9,0,0,0,31.183,3.3l-13,19.439H3.968A2.977,2.977,0,0,0,1,25.7a2.5,2.5,0,0,0,.119.8L8.657,54.016a5.9,5.9,0,0,0,5.7,4.333H52.937a5.964,5.964,0,0,0,5.728-4.333L66.2,26.5l.089-.8a2.977,2.977,0,0,0-2.968-2.968Zm-24.366,0,8.9-13.058,8.9,13.058Zm8.9,23.743a5.936,5.936,0,1,1,5.936-5.936A5.953,5.953,0,0,1,33.646,46.478Z" transform="translate(1.968 3.975)" fill="#009688"/>
      </g>
      <g id="baseline-shopping_basket-24px-2" data-name="baseline-shopping_basket-24px" transform="translate(-369 1762)" opacity="0.029">
        <path id="Path_90-2" data-name="Path 90" d="M0,0H71.228V71.228H0Z" fill="rgba(0,0,0,0)"/>
        <path id="Path_91-2" data-name="Path 91" d="M49.108,22.735l-13-19.469A2.946,2.946,0,0,0,33.646,2.02,2.9,2.9,0,0,0,31.183,3.3l-13,19.439H3.968A2.977,2.977,0,0,0,1,25.7a2.5,2.5,0,0,0,.119.8L8.657,54.016a5.9,5.9,0,0,0,5.7,4.333H52.937a5.964,5.964,0,0,0,5.728-4.333L66.2,26.5l.089-.8a2.977,2.977,0,0,0-2.968-2.968Zm-24.366,0,8.9-13.058,8.9,13.058Zm8.9,23.743a5.936,5.936,0,1,1,5.936-5.936A5.953,5.953,0,0,1,33.646,46.478Z" transform="translate(1.968 3.975)" fill="#009688"/>
      </g>
      <g id="baseline-shopping_basket-24px-3" data-name="baseline-shopping_basket-24px" transform="translate(-369 1648)" opacity="0.199">
        <path id="Path_90-3" data-name="Path 90" d="M0,0H71.228V71.228H0Z" fill="rgba(0,0,0,0)"/>
        <path id="Path_91-3" data-name="Path 91" d="M49.108,22.735l-13-19.469A2.946,2.946,0,0,0,33.646,2.02,2.9,2.9,0,0,0,31.183,3.3l-13,19.439H3.968A2.977,2.977,0,0,0,1,25.7a2.5,2.5,0,0,0,.119.8L8.657,54.016a5.9,5.9,0,0,0,5.7,4.333H52.937a5.964,5.964,0,0,0,5.728-4.333L66.2,26.5l.089-.8a2.977,2.977,0,0,0-2.968-2.968Zm-24.366,0,8.9-13.058,8.9,13.058Zm8.9,23.743a5.936,5.936,0,1,1,5.936-5.936A5.953,5.953,0,0,1,33.646,46.478Z" transform="translate(1.968 3.975)" fill="#009688"/>
      </g>
      <g id="baseline-shopping_basket-24px-4" data-name="baseline-shopping_basket-24px" transform="translate(-369 1534)" opacity="0.075">
        <path id="Path_90-4" data-name="Path 90" d="M0,0H71.228V71.228H0Z" fill="rgba(0,0,0,0)"/>
        <path id="Path_91-4" data-name="Path 91" d="M49.108,22.735l-13-19.469A2.946,2.946,0,0,0,33.646,2.02,2.9,2.9,0,0,0,31.183,3.3l-13,19.439H3.968A2.977,2.977,0,0,0,1,25.7a2.5,2.5,0,0,0,.119.8L8.657,54.016a5.9,5.9,0,0,0,5.7,4.333H52.937a5.964,5.964,0,0,0,5.728-4.333L66.2,26.5l.089-.8a2.977,2.977,0,0,0-2.968-2.968Zm-24.366,0,8.9-13.058,8.9,13.058Zm8.9,23.743a5.936,5.936,0,1,1,5.936-5.936A5.953,5.953,0,0,1,33.646,46.478Z" transform="translate(1.968 3.975)" fill="#009688"/>
      </g>
      <g id="baseline-shopping_basket-24px-5" data-name="baseline-shopping_basket-24px" transform="translate(-369 1420)" opacity="0.199">
        <path id="Path_90-5" data-name="Path 90" d="M0,0H71.228V71.228H0Z" fill="rgba(0,0,0,0)"/>
        <path id="Path_91-5" data-name="Path 91" d="M49.108,22.735l-13-19.469A2.946,2.946,0,0,0,33.646,2.02,2.9,2.9,0,0,0,31.183,3.3l-13,19.439H3.968A2.977,2.977,0,0,0,1,25.7a2.5,2.5,0,0,0,.119.8L8.657,54.016a5.9,5.9,0,0,0,5.7,4.333H52.937a5.964,5.964,0,0,0,5.728-4.333L66.2,26.5l.089-.8a2.977,2.977,0,0,0-2.968-2.968Zm-24.366,0,8.9-13.058,8.9,13.058Zm8.9,23.743a5.936,5.936,0,1,1,5.936-5.936A5.953,5.953,0,0,1,33.646,46.478Z" transform="translate(1.968 3.975)" fill="#009688"/>
      </g>
      <g id="baseline-shopping_basket-24px-6" data-name="baseline-shopping_basket-24px" transform="translate(-581 1876)" opacity="0.029">
        <path id="Path_90-6" data-name="Path 90" d="M0,0H71.228V71.228H0Z" fill="rgba(0,0,0,0)"/>
        <path id="Path_91-6" data-name="Path 91" d="M49.108,22.735l-13-19.469A2.946,2.946,0,0,0,33.646,2.02,2.9,2.9,0,0,0,31.183,3.3l-13,19.439H3.968A2.977,2.977,0,0,0,1,25.7a2.5,2.5,0,0,0,.119.8L8.657,54.016a5.9,5.9,0,0,0,5.7,4.333H52.937a5.964,5.964,0,0,0,5.728-4.333L66.2,26.5l.089-.8a2.977,2.977,0,0,0-2.968-2.968Zm-24.366,0,8.9-13.058,8.9,13.058Zm8.9,23.743a5.936,5.936,0,1,1,5.936-5.936A5.953,5.953,0,0,1,33.646,46.478Z" transform="translate(1.968 3.975)" fill="#009688"/>
      </g>
      <g id="baseline-shopping_basket-24px-7" data-name="baseline-shopping_basket-24px" transform="translate(-581 1762)" opacity="0.139">
        <path id="Path_90-7" data-name="Path 90" d="M0,0H71.228V71.228H0Z" fill="rgba(0,0,0,0)"/>
        <path id="Path_91-7" data-name="Path 91" d="M49.108,22.735l-13-19.469A2.946,2.946,0,0,0,33.646,2.02,2.9,2.9,0,0,0,31.183,3.3l-13,19.439H3.968A2.977,2.977,0,0,0,1,25.7a2.5,2.5,0,0,0,.119.8L8.657,54.016a5.9,5.9,0,0,0,5.7,4.333H52.937a5.964,5.964,0,0,0,5.728-4.333L66.2,26.5l.089-.8a2.977,2.977,0,0,0-2.968-2.968Zm-24.366,0,8.9-13.058,8.9,13.058Zm8.9,23.743a5.936,5.936,0,1,1,5.936-5.936A5.953,5.953,0,0,1,33.646,46.478Z" transform="translate(1.968 3.975)" fill="#009688"/>
      </g>
      <g id="baseline-shopping_basket-24px-8" data-name="baseline-shopping_basket-24px" transform="translate(-581 1648)" opacity="0.075">
        <path id="Path_90-8" data-name="Path 90" d="M0,0H71.228V71.228H0Z" fill="rgba(0,0,0,0)"/>
        <path id="Path_91-8" data-name="Path 91" d="M49.108,22.735l-13-19.469A2.946,2.946,0,0,0,33.646,2.02,2.9,2.9,0,0,0,31.183,3.3l-13,19.439H3.968A2.977,2.977,0,0,0,1,25.7a2.5,2.5,0,0,0,.119.8L8.657,54.016a5.9,5.9,0,0,0,5.7,4.333H52.937a5.964,5.964,0,0,0,5.728-4.333L66.2,26.5l.089-.8a2.977,2.977,0,0,0-2.968-2.968Zm-24.366,0,8.9-13.058,8.9,13.058Zm8.9,23.743a5.936,5.936,0,1,1,5.936-5.936A5.953,5.953,0,0,1,33.646,46.478Z" transform="translate(1.968 3.975)" fill="#009688"/>
      </g>
      <g id="baseline-shopping_basket-24px-9" data-name="baseline-shopping_basket-24px" transform="translate(-581 1534)" opacity="0.087">
        <path id="Path_90-9" data-name="Path 90" d="M0,0H71.228V71.228H0Z" fill="rgba(0,0,0,0)"/>
        <path id="Path_91-9" data-name="Path 91" d="M49.108,22.735l-13-19.469A2.946,2.946,0,0,0,33.646,2.02,2.9,2.9,0,0,0,31.183,3.3l-13,19.439H3.968A2.977,2.977,0,0,0,1,25.7a2.5,2.5,0,0,0,.119.8L8.657,54.016a5.9,5.9,0,0,0,5.7,4.333H52.937a5.964,5.964,0,0,0,5.728-4.333L66.2,26.5l.089-.8a2.977,2.977,0,0,0-2.968-2.968Zm-24.366,0,8.9-13.058,8.9,13.058Zm8.9,23.743a5.936,5.936,0,1,1,5.936-5.936A5.953,5.953,0,0,1,33.646,46.478Z" transform="translate(1.968 3.975)" fill="#009688"/>
      </g>
      <g id="baseline-shopping_basket-24px-10" data-name="baseline-shopping_basket-24px" transform="translate(-581 1420)" opacity="0.075">
        <path id="Path_90-10" data-name="Path 90" d="M0,0H71.228V71.228H0Z" fill="rgba(0,0,0,0)"/>
        <path id="Path_91-10" data-name="Path 91" d="M49.108,22.735l-13-19.469A2.946,2.946,0,0,0,33.646,2.02,2.9,2.9,0,0,0,31.183,3.3l-13,19.439H3.968A2.977,2.977,0,0,0,1,25.7a2.5,2.5,0,0,0,.119.8L8.657,54.016a5.9,5.9,0,0,0,5.7,4.333H52.937a5.964,5.964,0,0,0,5.728-4.333L66.2,26.5l.089-.8a2.977,2.977,0,0,0-2.968-2.968Zm-24.366,0,8.9-13.058,8.9,13.058Zm8.9,23.743a5.936,5.936,0,1,1,5.936-5.936A5.953,5.953,0,0,1,33.646,46.478Z" transform="translate(1.968 3.975)" fill="#009688"/>
      </g>
      <g id="baseline-shopping_basket-24px-11" data-name="baseline-shopping_basket-24px" transform="translate(-475 1940)" opacity="0.139">
        <path id="Path_90-11" data-name="Path 90" d="M0,0H71.228V71.228H0Z" fill="rgba(0,0,0,0)"/>
        <path id="Path_91-11" data-name="Path 91" d="M49.108,22.735l-13-19.469A2.946,2.946,0,0,0,33.646,2.02,2.9,2.9,0,0,0,31.183,3.3l-13,19.439H3.968A2.977,2.977,0,0,0,1,25.7a2.5,2.5,0,0,0,.119.8L8.657,54.016a5.9,5.9,0,0,0,5.7,4.333H52.937a5.964,5.964,0,0,0,5.728-4.333L66.2,26.5l.089-.8a2.977,2.977,0,0,0-2.968-2.968Zm-24.366,0,8.9-13.058,8.9,13.058Zm8.9,23.743a5.936,5.936,0,1,1,5.936-5.936A5.953,5.953,0,0,1,33.646,46.478Z" transform="translate(1.968 3.975)" fill="#009688"/>
      </g>
      <g id="baseline-shopping_basket-24px-12" data-name="baseline-shopping_basket-24px" transform="translate(-475 1826)" opacity="0.036">
        <path id="Path_90-12" data-name="Path 90" d="M0,0H71.228V71.228H0Z" fill="rgba(0,0,0,0)"/>
        <path id="Path_91-12" data-name="Path 91" d="M49.108,22.735l-13-19.469A2.946,2.946,0,0,0,33.646,2.02,2.9,2.9,0,0,0,31.183,3.3l-13,19.439H3.968A2.977,2.977,0,0,0,1,25.7a2.5,2.5,0,0,0,.119.8L8.657,54.016a5.9,5.9,0,0,0,5.7,4.333H52.937a5.964,5.964,0,0,0,5.728-4.333L66.2,26.5l.089-.8a2.977,2.977,0,0,0-2.968-2.968Zm-24.366,0,8.9-13.058,8.9,13.058Zm8.9,23.743a5.936,5.936,0,1,1,5.936-5.936A5.953,5.953,0,0,1,33.646,46.478Z" transform="translate(1.968 3.975)" fill="#009688"/>
      </g>
      <g id="baseline-shopping_basket-24px-13" data-name="baseline-shopping_basket-24px" transform="translate(-475 1712)" opacity="0.07">
        <path id="Path_90-13" data-name="Path 90" d="M0,0H71.228V71.228H0Z" fill="rgba(0,0,0,0)"/>
        <path id="Path_91-13" data-name="Path 91" d="M49.108,22.735l-13-19.469A2.946,2.946,0,0,0,33.646,2.02,2.9,2.9,0,0,0,31.183,3.3l-13,19.439H3.968A2.977,2.977,0,0,0,1,25.7a2.5,2.5,0,0,0,.119.8L8.657,54.016a5.9,5.9,0,0,0,5.7,4.333H52.937a5.964,5.964,0,0,0,5.728-4.333L66.2,26.5l.089-.8a2.977,2.977,0,0,0-2.968-2.968Zm-24.366,0,8.9-13.058,8.9,13.058Zm8.9,23.743a5.936,5.936,0,1,1,5.936-5.936A5.953,5.953,0,0,1,33.646,46.478Z" transform="translate(1.968 3.975)" fill="#009688"/>
      </g>
      <g id="baseline-shopping_basket-24px-14" data-name="baseline-shopping_basket-24px" transform="translate(-475 1598)" opacity="0.139">
        <path id="Path_90-14" data-name="Path 90" d="M0,0H71.228V71.228H0Z" fill="rgba(0,0,0,0)"/>
        <path id="Path_91-14" data-name="Path 91" d="M49.108,22.735l-13-19.469A2.946,2.946,0,0,0,33.646,2.02,2.9,2.9,0,0,0,31.183,3.3l-13,19.439H3.968A2.977,2.977,0,0,0,1,25.7a2.5,2.5,0,0,0,.119.8L8.657,54.016a5.9,5.9,0,0,0,5.7,4.333H52.937a5.964,5.964,0,0,0,5.728-4.333L66.2,26.5l.089-.8a2.977,2.977,0,0,0-2.968-2.968Zm-24.366,0,8.9-13.058,8.9,13.058Zm8.9,23.743a5.936,5.936,0,1,1,5.936-5.936A5.953,5.953,0,0,1,33.646,46.478Z" transform="translate(1.968 3.975)" fill="#009688"/>
      </g>
      <g id="baseline-shopping_basket-24px-15" data-name="baseline-shopping_basket-24px" transform="translate(-475 1484)" opacity="0.029">
        <path id="Path_90-15" data-name="Path 90" d="M0,0H71.228V71.228H0Z" fill="rgba(0,0,0,0)"/>
        <path id="Path_91-15" data-name="Path 91" d="M49.108,22.735l-13-19.469A2.946,2.946,0,0,0,33.646,2.02,2.9,2.9,0,0,0,31.183,3.3l-13,19.439H3.968A2.977,2.977,0,0,0,1,25.7a2.5,2.5,0,0,0,.119.8L8.657,54.016a5.9,5.9,0,0,0,5.7,4.333H52.937a5.964,5.964,0,0,0,5.728-4.333L66.2,26.5l.089-.8a2.977,2.977,0,0,0-2.968-2.968Zm-24.366,0,8.9-13.058,8.9,13.058Zm8.9,23.743a5.936,5.936,0,1,1,5.936-5.936A5.953,5.953,0,0,1,33.646,46.478Z" transform="translate(1.968 3.975)" fill="#009688"/>
      </g>
    </g>
    <g id="Group_336" data-name="Group 336" transform="translate(34 55)" opacity="0.154">
      <g id="baseline-shopping_basket-24px-16" data-name="baseline-shopping_basket-24px" transform="translate(-388.363 1877.351)" opacity="0.17">
        <path id="Path_90-16" data-name="Path 90" d="M0,0H64.722V64.722H0Z" fill="rgba(0,0,0,0)"/>
        <path id="Path_91-16" data-name="Path 91" d="M44.714,20.843,32.9,3.153A2.677,2.677,0,0,0,30.664,2.02a2.636,2.636,0,0,0-2.238,1.16L16.614,20.843H3.7A2.7,2.7,0,0,0,1,23.54a2.271,2.271,0,0,0,.108.728l6.85,25A5.363,5.363,0,0,0,13.135,53.2H48.193a5.42,5.42,0,0,0,5.2-3.937l6.85-25,.081-.728a2.7,2.7,0,0,0-2.7-2.7Zm-22.14,0,8.09-11.866,8.09,11.866Zm8.09,21.574a5.394,5.394,0,1,1,5.394-5.394A5.409,5.409,0,0,1,30.664,42.417Z" transform="translate(1.697 3.427)" fill="#009688"/>
      </g>
      <g id="baseline-shopping_basket-24px-17" data-name="baseline-shopping_basket-24px" transform="translate(-388.363 1730.763)" opacity="0.029">
        <path id="Path_90-17" data-name="Path 90" d="M0,0H64.722V64.722H0Z" fill="rgba(0,0,0,0)"/>
        <path id="Path_91-17" data-name="Path 91" d="M44.714,20.843,32.9,3.153A2.677,2.677,0,0,0,30.664,2.02a2.636,2.636,0,0,0-2.238,1.16L16.614,20.843H3.7A2.7,2.7,0,0,0,1,23.54a2.271,2.271,0,0,0,.108.728l6.85,25A5.363,5.363,0,0,0,13.135,53.2H48.193a5.42,5.42,0,0,0,5.2-3.937l6.85-25,.081-.728a2.7,2.7,0,0,0-2.7-2.7Zm-22.14,0,8.09-11.866,8.09,11.866Zm8.09,21.574a5.394,5.394,0,1,1,5.394-5.394A5.409,5.409,0,0,1,30.664,42.417Z" transform="translate(1.697 3.427)" fill="#009688"/>
      </g>
      <g id="baseline-shopping_basket-24px-18" data-name="baseline-shopping_basket-24px" transform="translate(-420.363 1646.464)" opacity="0.199">
        <path id="Path_90-18" data-name="Path 90" d="M0,0H53.433V53.433H0Z" fill="rgba(0,0,0,0)"/>
        <path id="Path_91-18" data-name="Path 91" d="M37.09,17.56,27.338,2.955A2.21,2.21,0,0,0,25.49,2.02a2.176,2.176,0,0,0-1.848.957L13.891,17.56H3.226A2.233,2.233,0,0,0,1,19.787a1.875,1.875,0,0,0,.089.6L6.744,41.026a4.428,4.428,0,0,0,4.275,3.251H39.962a4.474,4.474,0,0,0,4.3-3.251l5.655-20.639.067-.6a2.233,2.233,0,0,0-2.226-2.226Zm-18.279,0,6.679-9.8,6.679,9.8ZM25.49,35.371a4.453,4.453,0,1,1,4.453-4.453A4.466,4.466,0,0,1,25.49,35.371Z" transform="translate(1.226 2.477)" fill="#009688"/>
      </g>
      <g id="baseline-shopping_basket-24px-19" data-name="baseline-shopping_basket-24px" transform="translate(-388.363 1523.588)" opacity="0.075">
        <path id="Path_90-19" data-name="Path 90" d="M0,0H64.722V64.722H0Z" fill="rgba(0,0,0,0)"/>
        <path id="Path_91-19" data-name="Path 91" d="M44.714,20.843,32.9,3.153A2.677,2.677,0,0,0,30.664,2.02a2.636,2.636,0,0,0-2.238,1.16L16.614,20.843H3.7A2.7,2.7,0,0,0,1,23.54a2.271,2.271,0,0,0,.108.728l6.85,25A5.363,5.363,0,0,0,13.135,53.2H48.193a5.42,5.42,0,0,0,5.2-3.937l6.85-25,.081-.728a2.7,2.7,0,0,0-2.7-2.7Zm-22.14,0,8.09-11.866,8.09,11.866Zm8.09,21.574a5.394,5.394,0,1,1,5.394-5.394A5.409,5.409,0,0,1,30.664,42.417Z" transform="translate(1.697 3.427)" fill="#009688"/>
      </g>
      <g id="baseline-shopping_basket-24px-20" data-name="baseline-shopping_basket-24px" transform="translate(-388.363 1420)" opacity="0.199">
        <path id="Path_90-20" data-name="Path 90" d="M0,0H47.861V47.861H0Z" fill="rgba(0,0,0,0)"/>
        <path id="Path_91-20" data-name="Path 91" d="M33.326,15.939,24.591,2.858a1.98,1.98,0,0,0-1.655-.838,1.949,1.949,0,0,0-1.655.858L12.546,15.939H2.994A2,2,0,0,0,1,17.934a1.68,1.68,0,0,0,.08.538L6.145,36.958A3.966,3.966,0,0,0,9.974,39.87H35.9a4.008,4.008,0,0,0,3.849-2.912l5.065-18.486.06-.538a2,2,0,0,0-1.994-1.994Zm-16.372,0,5.983-8.774,5.983,8.774Zm5.983,15.954A3.988,3.988,0,1,1,26.925,27.9,4,4,0,0,1,22.936,31.893Z" transform="translate(0.994 2.008)" fill="#009688"/>
      </g>
      <g id="baseline-shopping_basket-24px-21" data-name="baseline-shopping_basket-24px" transform="translate(-581 1834.351)" opacity="0.029">
        <path id="Path_90-21" data-name="Path 90" d="M0,0H64.722V64.722H0Z" fill="rgba(0,0,0,0)"/>
        <path id="Path_91-21" data-name="Path 91" d="M44.714,20.843,32.9,3.153A2.677,2.677,0,0,0,30.664,2.02a2.636,2.636,0,0,0-2.238,1.16L16.614,20.843H3.7A2.7,2.7,0,0,0,1,23.54a2.271,2.271,0,0,0,.108.728l6.85,25A5.363,5.363,0,0,0,13.135,53.2H48.193a5.42,5.42,0,0,0,5.2-3.937l6.85-25,.081-.728a2.7,2.7,0,0,0-2.7-2.7Zm-22.14,0,8.09-11.866,8.09,11.866Zm8.09,21.574a5.394,5.394,0,1,1,5.394-5.394A5.409,5.409,0,0,1,30.664,42.417Z" transform="translate(1.697 3.427)" fill="#009688"/>
      </g>
      <g id="baseline-shopping_basket-24px-22" data-name="baseline-shopping_basket-24px" transform="translate(-581 1730.763)" opacity="0.139">
        <path id="Path_90-22" data-name="Path 90" d="M0,0H64.722V64.722H0Z" fill="rgba(0,0,0,0)"/>
        <path id="Path_91-22" data-name="Path 91" d="M44.714,20.843,32.9,3.153A2.677,2.677,0,0,0,30.664,2.02a2.636,2.636,0,0,0-2.238,1.16L16.614,20.843H3.7A2.7,2.7,0,0,0,1,23.54a2.271,2.271,0,0,0,.108.728l6.85,25A5.363,5.363,0,0,0,13.135,53.2H48.193a5.42,5.42,0,0,0,5.2-3.937l6.85-25,.081-.728a2.7,2.7,0,0,0-2.7-2.7Zm-22.14,0,8.09-11.866,8.09,11.866Zm8.09,21.574a5.394,5.394,0,1,1,5.394-5.394A5.409,5.409,0,0,1,30.664,42.417Z" transform="translate(1.697 3.427)" fill="#009688"/>
      </g>
      <g id="baseline-shopping_basket-24px-23" data-name="baseline-shopping_basket-24px" transform="translate(-581 1627.176)" opacity="0.075">
        <path id="Path_90-23" data-name="Path 90" d="M0,0H64.722V64.722H0Z" fill="rgba(0,0,0,0)"/>
        <path id="Path_91-23" data-name="Path 91" d="M44.714,20.843,32.9,3.153A2.677,2.677,0,0,0,30.664,2.02a2.636,2.636,0,0,0-2.238,1.16L16.614,20.843H3.7A2.7,2.7,0,0,0,1,23.54a2.271,2.271,0,0,0,.108.728l6.85,25A5.363,5.363,0,0,0,13.135,53.2H48.193a5.42,5.42,0,0,0,5.2-3.937l6.85-25,.081-.728a2.7,2.7,0,0,0-2.7-2.7Zm-22.14,0,8.09-11.866,8.09,11.866Zm8.09,21.574a5.394,5.394,0,1,1,5.394-5.394A5.409,5.409,0,0,1,30.664,42.417Z" transform="translate(1.697 3.427)" fill="#009688"/>
      </g>
      <g id="baseline-shopping_basket-24px-24" data-name="baseline-shopping_basket-24px" transform="translate(-581 1533.521)" opacity="0.199">
        <path id="Path_90-24" data-name="Path 90" d="M0,0H54.789V54.789H0Z" fill="rgba(0,0,0,0)"/>
        <path id="Path_91-24" data-name="Path 91" d="M38.006,17.955l-10-14.976a2.266,2.266,0,0,0-1.895-.959A2.231,2.231,0,0,0,24.217,3l-10,14.953H3.283A2.29,2.29,0,0,0,1,20.237a1.923,1.923,0,0,0,.091.616l5.8,21.162a4.54,4.54,0,0,0,4.383,3.333H40.951a4.588,4.588,0,0,0,4.406-3.333l5.8-21.162.068-.616a2.29,2.29,0,0,0-2.283-2.283Zm-18.743,0L26.112,7.91,32.96,17.955Zm6.849,18.263a4.566,4.566,0,1,1,4.566-4.566A4.579,4.579,0,0,1,26.112,36.218Z" transform="translate(1.283 2.591)" fill="#009688"/>
      </g>
      <g id="baseline-shopping_basket-24px-25" data-name="baseline-shopping_basket-24px" transform="translate(-581 1420)" opacity="0.075">
        <path id="Path_90-25" data-name="Path 90" d="M0,0H64.722V64.722H0Z" fill="rgba(0,0,0,0)"/>
        <path id="Path_91-25" data-name="Path 91" d="M44.714,20.843,32.9,3.153A2.677,2.677,0,0,0,30.664,2.02a2.636,2.636,0,0,0-2.238,1.16L16.614,20.843H3.7A2.7,2.7,0,0,0,1,23.54a2.271,2.271,0,0,0,.108.728l6.85,25A5.363,5.363,0,0,0,13.135,53.2H48.193a5.42,5.42,0,0,0,5.2-3.937l6.85-25,.081-.728a2.7,2.7,0,0,0-2.7-2.7Zm-22.14,0,8.09-11.866,8.09,11.866Zm8.09,21.574a5.394,5.394,0,1,1,5.394-5.394A5.409,5.409,0,0,1,30.664,42.417Z" transform="translate(1.697 3.427)" fill="#009688"/>
      </g>
      <g id="baseline-shopping_basket-24px-26" data-name="baseline-shopping_basket-24px" transform="translate(-484.682 1892.506)" opacity="0.139">
        <path id="Path_90-26" data-name="Path 90" d="M0,0H64.722V64.722H0Z" fill="rgba(0,0,0,0)"/>
        <path id="Path_91-26" data-name="Path 91" d="M44.714,20.843,32.9,3.153A2.677,2.677,0,0,0,30.664,2.02a2.636,2.636,0,0,0-2.238,1.16L16.614,20.843H3.7A2.7,2.7,0,0,0,1,23.54a2.271,2.271,0,0,0,.108.728l6.85,25A5.363,5.363,0,0,0,13.135,53.2H48.193a5.42,5.42,0,0,0,5.2-3.937l6.85-25,.081-.728a2.7,2.7,0,0,0-2.7-2.7Zm-22.14,0,8.09-11.866,8.09,11.866Zm8.09,21.574a5.394,5.394,0,1,1,5.394-5.394A5.409,5.409,0,0,1,30.664,42.417Z" transform="translate(1.697 3.427)" fill="#009688"/>
      </g>
      <g id="baseline-shopping_basket-24px-27" data-name="baseline-shopping_basket-24px" transform="translate(-484.682 1788.918)" opacity="0.036">
        <path id="Path_90-27" data-name="Path 90" d="M0,0H64.722V64.722H0Z" fill="rgba(0,0,0,0)"/>
        <path id="Path_91-27" data-name="Path 91" d="M44.714,20.843,32.9,3.153A2.677,2.677,0,0,0,30.664,2.02a2.636,2.636,0,0,0-2.238,1.16L16.614,20.843H3.7A2.7,2.7,0,0,0,1,23.54a2.271,2.271,0,0,0,.108.728l6.85,25A5.363,5.363,0,0,0,13.135,53.2H48.193a5.42,5.42,0,0,0,5.2-3.937l6.85-25,.081-.728a2.7,2.7,0,0,0-2.7-2.7Zm-22.14,0,8.09-11.866,8.09,11.866Zm8.09,21.574a5.394,5.394,0,1,1,5.394-5.394A5.409,5.409,0,0,1,30.664,42.417Z" transform="translate(1.697 3.427)" fill="#009688"/>
      </g>
      <g id="baseline-shopping_basket-24px-28" data-name="baseline-shopping_basket-24px" transform="translate(-484.682 1685.33)" opacity="0.07">
        <path id="Path_90-28" data-name="Path 90" d="M0,0H64.722V64.722H0Z" fill="rgba(0,0,0,0)"/>
        <path id="Path_91-28" data-name="Path 91" d="M44.714,20.843,32.9,3.153A2.677,2.677,0,0,0,30.664,2.02a2.636,2.636,0,0,0-2.238,1.16L16.614,20.843H3.7A2.7,2.7,0,0,0,1,23.54a2.271,2.271,0,0,0,.108.728l6.85,25A5.363,5.363,0,0,0,13.135,53.2H48.193a5.42,5.42,0,0,0,5.2-3.937l6.85-25,.081-.728a2.7,2.7,0,0,0-2.7-2.7Zm-22.14,0,8.09-11.866,8.09,11.866Zm8.09,21.574a5.394,5.394,0,1,1,5.394-5.394A5.409,5.409,0,0,1,30.664,42.417Z" transform="translate(1.697 3.427)" fill="#009688"/>
      </g>
      <g id="baseline-shopping_basket-24px-29" data-name="baseline-shopping_basket-24px" transform="translate(-484.682 1581.742)" opacity="0.139">
        <path id="Path_90-29" data-name="Path 90" d="M0,0H64.722V64.722H0Z" fill="rgba(0,0,0,0)"/>
        <path id="Path_91-29" data-name="Path 91" d="M44.714,20.843,32.9,3.153A2.677,2.677,0,0,0,30.664,2.02a2.636,2.636,0,0,0-2.238,1.16L16.614,20.843H3.7A2.7,2.7,0,0,0,1,23.54a2.271,2.271,0,0,0,.108.728l6.85,25A5.363,5.363,0,0,0,13.135,53.2H48.193a5.42,5.42,0,0,0,5.2-3.937l6.85-25,.081-.728a2.7,2.7,0,0,0-2.7-2.7Zm-22.14,0,8.09-11.866,8.09,11.866Zm8.09,21.574a5.394,5.394,0,1,1,5.394-5.394A5.409,5.409,0,0,1,30.664,42.417Z" transform="translate(1.697 3.427)" fill="#009688"/>
      </g>
      <g id="baseline-shopping_basket-24px-30" data-name="baseline-shopping_basket-24px" transform="translate(-484.682 1478.155)" opacity="0.029">
        <path id="Path_90-30" data-name="Path 90" d="M0,0H64.722V64.722H0Z" fill="rgba(0,0,0,0)"/>
        <path id="Path_91-30" data-name="Path 91" d="M44.714,20.843,32.9,3.153A2.677,2.677,0,0,0,30.664,2.02a2.636,2.636,0,0,0-2.238,1.16L16.614,20.843H3.7A2.7,2.7,0,0,0,1,23.54a2.271,2.271,0,0,0,.108.728l6.85,25A5.363,5.363,0,0,0,13.135,53.2H48.193a5.42,5.42,0,0,0,5.2-3.937l6.85-25,.081-.728a2.7,2.7,0,0,0-2.7-2.7Zm-22.14,0,8.09-11.866,8.09,11.866Zm8.09,21.574a5.394,5.394,0,1,1,5.394-5.394A5.409,5.409,0,0,1,30.664,42.417Z" transform="translate(1.697 3.427)" fill="#009688"/>
      </g>
    </g>
  </g>
</svg>
